<svg fill="none" height="20" viewBox="0 0 48 48" width="20" xmlns="http://www.w3.org/2000/svg"><g fill="#a6cfff"><path d="m5.1925 28.0422c.05814 1.2777.95516 2.3358 2.2202 2.5243 1.43102.2132 3.5286.4335 6.0873.4335s4.6563-.2203 6.0873-.4335c1.265-.1885 2.1621-1.2466 2.2202-2.5243.0885-1.9438.1925-5.2488.1925-10.0422s-.104-8.09842-.1925-10.0422c-.0581-1.27768-.9552-2.33577-2.2202-2.52427-1.431-.21323-3.5286-.43353-6.0873-.43353s-4.65628.2203-6.0873.43353c-1.26504.1885-2.16206 1.24659-2.2202 2.52427-.08846 1.94378-.1925 5.2488-.1925 10.0422s.10404 8.0984.1925 10.0422z"/><path d="m19.8666 44.8502c.9297-.0467 1.7272-.5809 1.8907-1.4972.1313-.736.2427-1.8139.2427-3.353s-.1114-2.617-.2427-3.353c-.1635-.9163-.961-1.4505-1.8907-1.4972-1.3501-.0677-3.5636-.1498-6.3666-.1498s-5.01651.0821-6.36665.1498c-.92964.0467-1.72717.5809-1.89067 1.4972-.13131.736-.24268 1.8139-.24268 3.353s.11137 2.617.24268 3.353c.1635.9163.96103 1.4505 1.89067 1.4972 1.35014.0677 3.56365.1498 6.36665.1498s5.0165-.0821 6.3666-.1498z"/><path d="m42.8075 21.9578c-.0581-1.2777-.9552-2.3358-2.2202-2.5243-1.431-.2132-3.5286-.4335-6.0873-.4335s-4.6563.2203-6.0873.4335c-1.265.1885-2.1621 1.2466-2.2202 2.5243-.0885 1.9438-.1925 5.2488-.1925 10.0422s.104 8.0984.1925 10.0422c.0581 1.2777.9552 2.3358 2.2202 2.5243 1.431.2132 3.5286.4335 6.0873.4335s4.6563-.2203 6.0873-.4335c1.265-.1885 2.1621-1.2466 2.2202-2.5243.0885-1.9438.1925-5.2488.1925-10.0422s-.104-8.0984-.1925-10.0422z"/><path d="m28.1334 5.14982c-.9297.04667-1.7272.58088-1.8907 1.49722-.1313.73597-.2427 1.81385-.2427 3.35296 0 1.5391.1114 2.617.2427 3.353.1635.9163.961 1.4505 1.8907 1.4972 1.3501.0677 3.5636.1498 6.3666.1498s5.0165-.0821 6.3666-.1498c.9297-.0467 1.7272-.5809 1.8907-1.4972.1313-.736.2427-1.8139.2427-3.353 0-1.53911-.1114-2.61699-.2427-3.35297-.1635-.91634-.961-1.45054-1.8907-1.49721-1.3501-.06777-3.5636-.14982-6.3666-.14982s-5.0165.08205-6.3666.14982z"/></g></svg>